# xmcd
#
# Track frame offsets:
#	150
#	12545
#	26775
#	38105
#	49937
#	62985
#	75145
#	87357
#	99985
#	113522
#	128322
#	142742
#	155995
#	169452
#	183097
#	196935
#	209870
#	224005
#	237445
#	250372
#	262712
#	274612
#	288987
#	303202
#	317862
#
# Disc length: 4432 seconds
#
# Revision: 0
# Processed by: cddbd v1.5.2PL0 Copyright (c) Steve Scherf et al.
# Submitted via: EasyCDDAExtractor 2010.3.0.0
#
DISCID=63114e19
DTITLE=Autry Gene - That Silver Haired Daddy Of Mine Disc 7
DYEAR=1900
DGENRE=
TTITLE0=I'm A Railroad Man (Waitin' On A Weary Train)
TTITLE1=Under The Old Apple Tree
TTITLE2=Wild Cat Mama Blues
TTITLE3=There's A Good Girl In The Mountains (Alt.#2)
TTITLE4=That Ramshackle Shack
TTITLE5=Back To Old Smoky Mountain (Alt.)
TTITLE6=Back To Old Smoky Mountain
TTITLE7=Back Home In The Blue Ridge Mountains
TTITLE8=Crime I Didn't Do
TTITLE9=Kentucky Lullaby
TTITLE10=Alone With My Sorrows
TTITLE11=I'm Always Dreaming Of You
TTITLE12=Moonlight And Skies
TTITLE13=Returning To My Cabin Home
TTITLE14=In The Cradle Of My Dreams
TTITLE15=My Carolina Mountain Rose
TTITLE16=Have You Found Someone Else
TTITLE17=In The Hills Of Carolina
TTITLE18=Gangster's Warning (Alt.#3)
TTITLE19=Back To The Old Smokey Mountain (Alt.2)
TTITLE20=Back Home In The Blue Ridge Mountains
TTITLE21=That Ramshackle Shack
TTITLE22=Black Bottom Blues
TTITLE23=Kentucky Lullaby
TTITLE24=Kentucky Lullaby (Alt.)
EXTD=
EXTT0=
EXTT1=
EXTT2=
EXTT3=
EXTT4=
EXTT5=
EXTT6=
EXTT7=
EXTT8=
EXTT9=
EXTT10=
EXTT11=
EXTT12=
EXTT13=
EXTT14=
EXTT15=
EXTT16=
EXTT17=
EXTT18=
EXTT19=
EXTT20=
EXTT21=
EXTT22=
EXTT23=
EXTT24=
PLAYORDER=
